<svg viewBox="0 0 88 27" xmlns="http://www.w3.org/2000/svg"><path d="M80.09 8.947c0-1.187 1.156-1.847 2.839-1.847 1.056 0 2.706.263 3.993 1.451l.265-2.375c-1.023-.563-2.31-1.123-4.291-1.123-3.598 0-5.347 1.847-5.347 4.092 0 4.621 7.459 4.457 7.459 7.492 0 1.156-.99 2.113-3.102 2.113-1.947 0-3.07-.826-4.158-1.517l-.298 2.375c1.155.792 2.97 1.22 4.654 1.22 3.795 0 5.445-2.178 5.445-4.389 0-4.752-7.459-4.488-7.459-7.492m-6.499 7.326v-10.824h-2.541v9.934c-.66 1.387-1.947 2.574-2.08 2.64-.197.1-1.187.594-2.474.594-2.278 0-2.476-2.045-2.476-4.488v-8.68h-2.541v10.463c0 3.828 2.145 4.916 4.785 4.916 2.244 0 3.366-.56 4.885-2.607l.396 2.179h2.31l-.132-1.189c-.098-.758-.132-1.748-.132-2.938m-22.935 2.344c-.792 0-1.519-.197-2.046-.428-.298-.099-.595-.265-.892-.429v-7.36c.694-1.056 2.212-2.509 2.476-2.673.23-.133 1.221-.397 1.98-.397 2.838 0 3.235 3.168 3.235 5.281 0 3.598-1.486 6.006-4.753 6.006zm2.112-13.564c-2.112 0-3.531.76-5.115 2.607l-.397-2.211h-2.344l.133 1.221c.066.76.132 1.783.132 2.937v17.393h2.541v-6.93c.957.494 2.079.727 3.301.727 4.225 0 7.162-3.367 7.162-8.483 0-5.281-2.377-7.261-5.413-7.261zm-15.444 12.74c-.363.363-1.518.824-2.575.824-1.979 0-4.521-1.088-4.521-5.842 0-2.574 1.353-4.388 1.683-4.718.297-.297 1.354-.826 2.541-.826 3.664 0 4.555 3.169 4.555 5.941 0 2.541-1.32 4.258-1.683 4.621zm-2.542-12.74c-4.753 0-7.294 3.498-7.294 7.888 0 4.752 2.773 7.856 6.931 7.856 4.522 0 7.327-3.236 7.327-7.856 0-4.884-2.772-7.888-6.964-7.888zm-15.245 2.441c.231-.131.693-.263 1.716-.263 1.716 0 2.409.296 2.409 1.583h2.377c0-.361 0-.791-.033-1.087-.232-1.981-2.146-2.674-4.885-2.674-3.004 0-6.7 2.31-6.7 7.756 0 5.214 2.772 7.988 6.634 7.988 1.683 0 3.466-.363 4.951-1.387l-.198-2.31c-.991.824-2.839 1.517-4.06 1.517-2.145 0-4.555-1.715-4.555-5.908 0-4.025 2.08-5.049 2.344-5.215m-16.467-2.111c0-1.485.858-3.037 3.697-3.037 1.419 0 3.102.429 4.653 1.32l.132-2.641c-1.419-.627-2.97-.957-4.785-.957-4.621 0-6.602 2.444-6.602 5.448 0 5.609 8.779 6.138 8.779 9.933 0 1.485-1.154 3.037-3.861 3.037-1.716 0-3.399-.562-4.72-1.386l-.363 2.64c1.552.758 3.565 1.057 5.149 1.057 4.258 0 6.701-2.477 6.701-5.514 0-5.312-8.78-6.039-8.78-9.9" fill="#E9711C"/></svg>